<svg width="256" height="73" viewBox="0 0 256 73" fill="none" xmlns="http://www.w3.org/2000/svg">
<path d="M13.3909 13.609C18.3829 12.868 20.0209 10.372 20.0209 7.33C20.0209 3.703 17.6809 0.699998 9.64688 0.699998H0.286875V2.026C2.97788 2.026 3.44588 4.717 3.44588 14.35C3.44588 23.983 2.97788 26.674 0.286875 26.674V28H10.6609C18.6169 28 20.9959 24.646 20.9959 20.707C20.9959 17.392 19.2799 14.389 13.3909 13.609ZM9.84188 2.338C14.0539 2.338 15.4189 4.717 15.4189 7.603C15.4189 10.567 14.0539 12.79 9.84188 12.79H7.22888V2.338H9.84188ZM7.22888 26.362V14.389H9.88088C14.8339 14.389 16.4329 17.041 16.4329 20.317C16.4329 23.71 14.8339 26.362 9.88088 26.362H7.22888ZM34.7775 8.383C33.0615 8.383 31.1115 9.592 30.0195 12.361V8.812H23.5845V10.099C26.3145 10.099 26.7045 12.205 26.7045 18.406C26.7045 24.568 26.3145 26.674 23.5845 26.674V28H33.1785V26.674C30.4875 26.674 30.0195 24.607 30.0195 18.094C30.0195 11.425 32.4765 10.84 33.2565 10.84C33.9195 10.84 34.5435 11.347 34.5435 12.244C34.5435 12.907 34.2315 13.609 33.5685 14.116C33.7245 14.974 34.5435 15.637 35.5575 15.637C37.0005 15.637 38.3655 14.389 38.3655 11.893C38.3655 10.177 37.0785 8.383 34.7775 8.383ZM54.7126 21.448C53.9326 25.075 51.7096 26.752 49.3696 26.752C45.3526 26.752 43.9486 23.086 43.9486 18.406V18.289H56.1556C56.1556 12.634 53.4646 8.383 48.1606 8.383C42.7006 8.383 39.8536 12.985 39.8536 18.406C39.8536 23.827 42.5056 28.468 48.6286 28.468C52.8796 28.468 55.3366 25.66 56.2726 21.916L54.7126 21.448ZM48.1606 9.904C51.0856 9.904 51.9436 13.336 52.0606 16.69H43.9876C44.2216 12.985 45.1966 9.904 48.1606 9.904ZM72.5539 15.52C72.5539 10.255 69.6679 8.383 65.8069 8.383C61.9849 8.383 59.1769 10.216 59.1769 13.141C59.1769 15.169 60.5419 16.261 62.0629 16.261C63.9349 16.261 65.0269 14.779 64.3639 13.141C63.4279 13.258 62.8039 12.556 62.8039 11.698C62.8039 10.528 63.8959 9.709 65.5729 9.709C68.6149 9.709 69.0049 12.244 69.0049 14.623C69.0049 18.172 58.5919 16.924 58.5919 23.866C58.5919 26.908 60.5809 28.468 63.1549 28.468C65.3389 28.468 67.8739 27.376 69.0049 24.568C69.0829 27.571 70.3699 28.468 72.0859 28.468C73.2949 28.468 74.1919 28 74.9329 27.415V26.479C73.1779 26.479 72.5539 25.465 72.5539 21.214V15.52ZM65.0659 25.972C63.6229 25.972 62.5699 24.88 62.5699 23.086C62.5699 19.147 67.3669 18.952 69.0049 17.041V20.98C69.0049 23.905 67.1329 25.972 65.0659 25.972ZM88.3065 15.637C91.4655 12.049 93.4935 10.489 95.2485 10.138V8.812H86.0445V10.138C89.0865 10.723 88.3845 12.907 82.8465 19.693C82.7685 18.289 82.7685 16.573 82.7685 14.584C82.7685 10.099 82.8075 4.21 83.1585 0.699998H76.3335V2.026C79.0635 2.026 79.4535 4.249 79.4535 14.584C79.4535 24.88 79.0635 26.674 76.3335 26.674V28H85.9275V26.674C84.0555 26.674 83.2755 25.816 82.9635 21.877L86.0835 18.172C89.5545 24.178 90.1395 26.245 87.3315 26.674V28H96.6915V26.674C94.7805 26.089 93.0255 23.476 88.3065 15.637ZM117.679 24.412C117.211 25.309 116.47 26.011 115.378 26.011C114.247 26.011 113.467 25.309 113.467 22.852V10.411H117.952V8.812H113.545L114.013 2.065H112.648C112.219 5.653 110.035 9.085 106.603 9.085V10.411H110.074C109.996 15.988 109.684 20.512 109.684 23.164C109.684 26.986 111.634 28.468 114.325 28.468C116.431 28.468 117.913 27.22 118.771 25.036L117.679 24.412ZM137.915 15.715C137.915 10.138 135.653 8.383 132.494 8.383C129.725 8.383 127.814 9.67 126.644 12.79C126.644 8.305 126.722 4.171 127.073 0.699998H120.209V2.026C122.939 2.026 123.329 4.249 123.329 14.584C123.329 24.88 122.939 26.674 120.209 26.674V28H129.803V26.674C127.424 26.674 126.8 25.348 126.683 17.665C126.956 11.737 129.452 10.528 131.402 10.528C133.508 10.528 134.327 12.244 134.327 15.715C134.327 24.724 133.898 26.674 131.207 26.674V28H140.762V26.674C138.032 26.674 137.915 24.724 137.915 15.715ZM156.419 15.52C156.419 10.255 153.533 8.383 149.672 8.383C145.85 8.383 143.042 10.216 143.042 13.141C143.042 15.169 144.407 16.261 145.928 16.261C147.8 16.261 148.892 14.779 148.229 13.141C147.293 13.258 146.669 12.556 146.669 11.698C146.669 10.528 147.761 9.709 149.438 9.709C152.48 9.709 152.87 12.244 152.87 14.623C152.87 18.172 142.457 16.924 142.457 23.866C142.457 26.908 144.446 28.468 147.02 28.468C149.204 28.468 151.739 27.376 152.87 24.568C152.948 27.571 154.235 28.468 155.951 28.468C157.16 28.468 158.057 28 158.798 27.415V26.479C157.043 26.479 156.419 25.465 156.419 21.214V15.52ZM148.931 25.972C147.488 25.972 146.435 24.88 146.435 23.086C146.435 19.147 151.232 18.952 152.87 17.041V20.98C152.87 23.905 150.998 25.972 148.931 25.972ZM170.694 24.412C170.226 25.309 169.485 26.011 168.393 26.011C167.262 26.011 166.482 25.309 166.482 22.852V10.411H170.967V8.812H166.56L167.028 2.065H165.663C165.234 5.653 163.05 9.085 159.618 9.085V10.411H163.089C163.011 15.988 162.699 20.512 162.699 23.164C162.699 26.986 164.649 28.468 167.34 28.468C169.446 28.468 170.928 27.22 171.786 25.036L170.694 24.412ZM193.634 8.383C191.918 8.383 189.968 9.592 188.876 12.361V8.812H182.441V10.099C185.171 10.099 185.561 12.205 185.561 18.406C185.561 24.568 185.171 26.674 182.441 26.674V28H192.035V26.674C189.344 26.674 188.876 24.607 188.876 18.094C188.876 11.425 191.333 10.84 192.113 10.84C192.776 10.84 193.4 11.347 193.4 12.244C193.4 12.907 193.088 13.609 192.425 14.116C192.581 14.974 193.4 15.637 194.414 15.637C195.857 15.637 197.222 14.389 197.222 11.893C197.222 10.177 195.935 8.383 193.634 8.383ZM207.095 28.468C212.633 28.468 215.48 23.827 215.48 18.406C215.48 12.985 212.633 8.383 207.095 8.383C201.557 8.383 198.71 12.985 198.71 18.406C198.71 23.827 201.557 28.468 207.095 28.468ZM207.095 26.908C203.78 26.908 202.805 22.852 202.805 18.406C202.805 13.999 203.78 9.904 207.095 9.904C210.41 9.904 211.385 13.999 211.385 18.406C211.385 22.852 210.41 26.908 207.095 26.908ZM221.924 18.211C221.924 14.116 222.899 9.904 226.526 9.904C228.281 9.904 229.217 10.879 229.217 11.971C229.217 12.868 228.671 13.336 227.813 13.414C227.189 15.013 228.164 16.807 230.231 16.807C232.181 16.807 232.922 15.247 232.922 13.648C232.922 10.918 230.387 8.383 226.292 8.383C220.871 8.383 217.829 12.907 217.829 18.406C217.829 24.1 220.988 28.468 226.175 28.468C230.348 28.468 232.688 25.66 233.507 21.916L231.908 21.448C231.206 24.529 229.841 26.752 226.994 26.752C223.406 26.752 221.924 23.203 221.924 18.211ZM247.506 15.637C250.665 12.049 252.693 10.489 254.448 10.138V8.812H245.244V10.138C248.286 10.723 247.584 12.907 242.046 19.693C241.968 18.289 241.968 16.573 241.968 14.584C241.968 10.099 242.007 4.21 242.358 0.699998H235.533V2.026C238.263 2.026 238.653 4.249 238.653 14.584C238.653 24.88 238.263 26.674 235.533 26.674V28H245.127V26.674C243.255 26.674 242.475 25.816 242.163 21.877L245.283 18.172C248.754 24.178 249.339 26.245 246.531 26.674V28H255.891V26.674C253.98 26.089 252.225 23.476 247.506 15.637ZM44.3313 36.7C42.8493 36.7 41.7573 37.831 41.7573 39.313C41.7573 40.756 42.8493 41.887 44.3313 41.887C45.7353 41.887 46.8663 40.756 46.8663 39.313C46.8663 37.831 45.7353 36.7 44.3313 36.7ZM49.4793 64V62.674C46.7493 62.674 46.3203 60.568 46.3203 54.406C46.3203 51.247 46.3593 47.503 46.7493 44.812H39.8853V46.099C42.6153 46.099 43.0053 48.205 43.0053 54.406C43.0053 60.568 42.6153 62.674 39.8853 62.674V64H49.4793ZM68.5981 51.715C68.5591 46.099 66.4141 44.383 63.1771 44.383C60.6031 44.383 58.6531 45.436 57.3271 48.79V44.812H50.8921V46.138C53.6221 46.138 54.0121 48.205 54.0121 54.406C54.0121 60.568 53.6221 62.674 50.8921 62.674V64H60.4861V62.674C57.7951 62.674 57.3271 60.646 57.3271 54.718C57.3271 47.893 60.0181 46.528 62.0461 46.528C64.3081 46.528 65.0101 48.244 65.0101 52.534C65.0101 60.685 64.5031 62.674 61.8901 62.674V64H71.4451V62.674C68.6371 62.674 68.6371 60.685 68.5981 51.715ZM83.3633 60.412C82.8953 61.309 82.1543 62.011 81.0623 62.011C79.9313 62.011 79.1513 61.309 79.1513 58.852V46.411H83.6363V44.812H79.2293L79.6973 38.065H78.3323C77.9033 41.653 75.7193 45.085 72.2873 45.085V46.411H75.7583C75.6803 51.988 75.3683 56.512 75.3683 59.164C75.3683 62.986 77.3183 64.468 80.0093 64.468C82.1153 64.468 83.5973 63.22 84.4553 61.036L83.3633 60.412ZM94.5511 64.468C100.089 64.468 102.936 59.827 102.936 54.406C102.936 48.985 100.089 44.383 94.5511 44.383C89.0131 44.383 86.1661 48.985 86.1661 54.406C86.1661 59.827 89.0131 64.468 94.5511 64.468ZM94.5511 62.908C91.2361 62.908 90.2611 58.852 90.2611 54.406C90.2611 49.999 91.2361 45.904 94.5511 45.904C97.8661 45.904 98.8411 49.999 98.8411 54.406C98.8411 58.852 97.8661 62.908 94.5511 62.908ZM125.227 44.383C122.497 44.383 121.093 45.592 120.274 47.347V44.812H113.839V46.099C116.53 46.099 116.998 47.932 116.998 58.267C116.998 68.524 116.569 70.747 113.839 70.747V72.034H123.433V70.747C121.015 70.747 120.391 69.031 120.313 61.582C121.366 63.649 123.082 64.468 125.227 64.468C130.141 64.468 132.52 59.983 132.52 54.406C132.52 48.868 130.141 44.383 125.227 44.383ZM124.33 62.713C121.249 62.713 120.274 58.93 120.274 54.406C120.274 49.804 121.249 46.099 124.33 46.099C127.45 46.099 128.425 49.804 128.425 54.406C128.425 58.93 127.45 62.713 124.33 62.713ZM139.051 36.7C137.569 36.7 136.477 37.831 136.477 39.313C136.477 40.756 137.569 41.887 139.051 41.887C140.455 41.887 141.586 40.756 141.586 39.313C141.586 37.831 140.455 36.7 139.051 36.7ZM144.199 64V62.674C141.469 62.674 141.04 60.568 141.04 54.406C141.04 51.247 141.079 47.503 141.469 44.812H134.605V46.099C137.335 46.099 137.725 48.205 137.725 54.406C137.725 60.568 137.335 62.674 134.605 62.674V64H144.199ZM160.744 57.448C159.964 61.075 157.741 62.752 155.401 62.752C151.384 62.752 149.98 59.086 149.98 54.406V54.289H162.187C162.187 48.634 159.496 44.383 154.192 44.383C148.732 44.383 145.885 48.985 145.885 54.406C145.885 59.827 148.537 64.468 154.66 64.468C158.911 64.468 161.368 61.66 162.304 57.916L160.744 57.448ZM154.192 45.904C157.117 45.904 157.975 49.336 158.092 52.69H150.019C150.253 48.985 151.228 45.904 154.192 45.904ZM168.718 54.211C168.718 50.116 169.693 45.904 173.32 45.904C175.075 45.904 176.011 46.879 176.011 47.971C176.011 48.868 175.465 49.336 174.607 49.414C173.983 51.013 174.958 52.807 177.025 52.807C178.975 52.807 179.716 51.247 179.716 49.648C179.716 46.918 177.181 44.383 173.086 44.383C167.665 44.383 164.623 48.907 164.623 54.406C164.623 60.1 167.782 64.468 172.969 64.468C177.142 64.468 179.482 61.66 180.301 57.916L178.702 57.448C178 60.529 176.635 62.752 173.788 62.752C170.2 62.752 168.718 59.203 168.718 54.211ZM197.459 57.448C196.679 61.075 194.456 62.752 192.116 62.752C188.099 62.752 186.695 59.086 186.695 54.406V54.289H198.902C198.902 48.634 196.211 44.383 190.907 44.383C185.447 44.383 182.6 48.985 182.6 54.406C182.6 59.827 185.252 64.468 191.375 64.468C195.626 64.468 198.083 61.66 199.019 57.916L197.459 57.448ZM190.907 45.904C193.832 45.904 194.69 49.336 194.807 52.69H186.734C186.968 48.985 187.943 45.904 190.907 45.904ZM211.634 45.475C210.503 45.475 209.567 44.383 207.266 44.383C204.419 44.383 201.845 46.021 201.845 49.57C201.845 56.356 211.673 55.303 211.673 60.217C211.673 61.504 210.698 62.947 208.904 62.947C207.071 62.947 204.731 62.011 202.82 57.058L201.533 57.331V64L202.781 64.312C203.21 63.532 203.522 63.337 204.146 63.337C205.355 63.337 206.603 64.39 209.099 64.39C212.18 64.39 214.832 62.206 214.832 58.735C214.832 51.832 204.848 52.963 204.848 48.322C204.848 46.84 205.862 45.748 207.461 45.748C210.191 45.748 211.595 48.244 212.609 51.169L213.935 50.896V44.812L212.609 44.539C212.414 45.241 211.985 45.475 211.634 45.475Z" fill="black"/>
</svg>
