<svg width="231" height="65" viewBox="0 0 231 65" fill="none" xmlns="http://www.w3.org/2000/svg">
<path d="M3.94307 5.848C3.94307 3.235 5.62007 1.87 7.88207 1.87C11.2361 1.87 13.9661 5.575 15.4091 9.787L16.6961 9.475V0.699998L15.4091 0.388C15.1751 1.324 14.5901 1.636 13.8101 1.636C12.6401 1.636 11.2751 0.232 8.15507 0.232C4.33307 0.232 0.745074 2.65 0.745074 7.33C0.745074 16.924 14.6291 14.74 14.6291 22.345C14.6291 24.724 12.9521 26.83 9.91008 26.83C5.89307 26.83 3.08507 22.579 1.64207 17.821L0.316074 18.094V28L1.64207 28.312C1.91507 27.376 2.42207 27.025 3.24107 27.025C4.25507 27.025 5.89307 28.468 9.67607 28.468C14.5511 28.468 18.1781 25.621 18.1781 20.746C18.1781 11.191 3.94307 12.829 3.94307 5.848ZM34.8171 15.52C34.8171 10.255 31.9311 8.383 28.0701 8.383C24.2481 8.383 21.4401 10.216 21.4401 13.141C21.4401 15.169 22.8051 16.261 24.3261 16.261C26.1981 16.261 27.2901 14.779 26.6271 13.141C25.6911 13.258 25.0671 12.556 25.0671 11.698C25.0671 10.528 26.1591 9.709 27.8361 9.709C30.8781 9.709 31.2681 12.244 31.2681 14.623C31.2681 18.172 20.8551 16.924 20.8551 23.866C20.8551 26.908 22.8441 28.468 25.4181 28.468C27.6021 28.468 30.1371 27.376 31.2681 24.568C31.3461 27.571 32.6331 28.468 34.3491 28.468C35.5581 28.468 36.4551 28 37.1961 27.415V26.479C35.4411 26.479 34.8171 25.465 34.8171 21.214V15.52ZM27.3291 25.972C25.8861 25.972 24.8331 24.88 24.8331 23.086C24.8331 19.147 29.6301 18.952 31.2681 17.041V20.98C31.2681 23.905 29.3961 25.972 27.3291 25.972ZM48.521 10.138C52.109 10.684 51.368 14.272 47.546 23.71C43.178 12.829 42.476 10.645 45.284 10.138V8.812H36.86V10.138C38.498 10.372 39.239 12.088 45.635 28H47.468C53.435 13.297 54.8 10.45 56.36 10.138V8.812H48.521V10.138ZM65.3836 28.468C70.9216 28.468 73.7686 23.827 73.7686 18.406C73.7686 12.985 70.9216 8.383 65.3836 8.383C59.8456 8.383 56.9986 12.985 56.9986 18.406C56.9986 23.827 59.8456 28.468 65.3836 28.468ZM65.3836 26.908C62.0686 26.908 61.0936 22.852 61.0936 18.406C61.0936 13.999 62.0686 9.904 65.3836 9.904C68.6986 9.904 69.6736 13.999 69.6736 18.406C69.6736 22.852 68.6986 26.908 65.3836 26.908ZM87.0378 8.383C85.3218 8.383 83.3718 9.592 82.2798 12.361V8.812H75.8448V10.099C78.5748 10.099 78.9648 12.205 78.9648 18.406C78.9648 24.568 78.5748 26.674 75.8448 26.674V28H85.4388V26.674C82.7478 26.674 82.2798 24.607 82.2798 18.094C82.2798 11.425 84.7368 10.84 85.5168 10.84C86.1798 10.84 86.8038 11.347 86.8038 12.244C86.8038 12.907 86.4918 13.609 85.8288 14.116C85.9848 14.974 86.8038 15.637 87.8178 15.637C89.2608 15.637 90.6258 14.389 90.6258 11.893C90.6258 10.177 89.3388 8.383 87.0378 8.383ZM111.934 24.412C111.466 25.309 110.725 26.011 109.633 26.011C108.502 26.011 107.722 25.309 107.722 22.852V10.411H112.207V8.812H107.8L108.268 2.065H106.903C106.474 5.653 104.29 9.085 100.858 9.085V10.411H104.329C104.251 15.988 103.939 20.512 103.939 23.164C103.939 26.986 105.889 28.468 108.58 28.468C110.686 28.468 112.168 27.22 113.026 25.036L111.934 24.412ZM132.17 15.715C132.17 10.138 129.908 8.383 126.749 8.383C123.98 8.383 122.069 9.67 120.899 12.79C120.899 8.305 120.977 4.171 121.328 0.699998H114.464V2.026C117.194 2.026 117.584 4.249 117.584 14.584C117.584 24.88 117.194 26.674 114.464 26.674V28H124.058V26.674C121.679 26.674 121.055 25.348 120.938 17.665C121.211 11.737 123.707 10.528 125.657 10.528C127.763 10.528 128.582 12.244 128.582 15.715C128.582 24.724 128.153 26.674 125.462 26.674V28H135.017V26.674C132.287 26.674 132.17 24.724 132.17 15.715ZM151.571 21.448C150.791 25.075 148.568 26.752 146.228 26.752C142.211 26.752 140.807 23.086 140.807 18.406V18.289H153.014C153.014 12.634 150.323 8.383 145.019 8.383C139.559 8.383 136.712 12.985 136.712 18.406C136.712 23.827 139.364 28.468 145.487 28.468C149.738 28.468 152.195 25.66 153.131 21.916L151.571 21.448ZM145.019 9.904C147.944 9.904 148.802 13.336 148.919 16.69H140.846C141.08 12.985 142.055 9.904 145.019 9.904ZM174.73 8.383C172.585 8.383 170.869 9.202 169.816 11.269C169.816 7.525 169.894 3.547 170.167 0.699998H163.342V2.026C166.072 2.026 166.501 4.327 166.501 14.584C166.501 19.069 166.501 24.607 166.111 28.156H167.398C167.983 27.532 168.568 26.596 169.153 25.231C170.089 27.298 171.883 28.468 174.34 28.468C179.683 28.468 182.062 23.983 182.062 18.406C182.062 12.868 179.683 8.383 174.73 8.383ZM173.833 26.713C170.752 26.713 169.816 22.969 169.816 18.328C169.816 13.843 170.752 10.099 173.833 10.099C176.953 10.099 177.928 13.843 177.928 18.328C177.928 22.969 176.953 26.713 173.833 26.713ZM199.255 21.448C198.475 25.075 196.252 26.752 193.912 26.752C189.895 26.752 188.491 23.086 188.491 18.406V18.289H200.698C200.698 12.634 198.007 8.383 192.703 8.383C187.243 8.383 184.396 12.985 184.396 18.406C184.396 23.827 187.048 28.468 193.171 28.468C197.422 28.468 199.879 25.66 200.815 21.916L199.255 21.448ZM192.703 9.904C195.628 9.904 196.486 13.336 196.603 16.69H188.53C188.764 12.985 189.739 9.904 192.703 9.904ZM213.43 9.475C212.299 9.475 211.363 8.383 209.062 8.383C206.215 8.383 203.641 10.021 203.641 13.57C203.641 20.356 213.469 19.303 213.469 24.217C213.469 25.504 212.494 26.947 210.7 26.947C208.867 26.947 206.527 26.011 204.616 21.058L203.329 21.331V28L204.577 28.312C205.006 27.532 205.318 27.337 205.942 27.337C207.151 27.337 208.399 28.39 210.895 28.39C213.976 28.39 216.628 26.206 216.628 22.735C216.628 15.832 206.644 16.963 206.644 12.322C206.644 10.84 207.658 9.748 209.257 9.748C211.987 9.748 213.391 12.244 214.405 15.169L215.731 14.896V8.812L214.405 8.539C214.21 9.241 213.781 9.475 213.43 9.475ZM229.391 24.412C228.923 25.309 228.182 26.011 227.09 26.011C225.959 26.011 225.179 25.309 225.179 22.852V10.411H229.664V8.812H225.257L225.725 2.065H224.36C223.931 5.653 221.747 9.085 218.315 9.085V10.411H221.786C221.708 15.988 221.396 20.512 221.396 23.164C221.396 26.986 223.346 28.468 226.037 28.468C228.143 28.468 229.625 27.22 230.483 25.036L229.391 24.412ZM14.5989 64V62.674C11.9079 62.674 11.4399 60.841 11.4399 50.584C11.4399 46.099 11.5179 39.82 11.8299 36.7H5.00491V38.026C7.69591 38.026 8.12491 40.327 8.12491 50.584C8.12491 60.841 7.69591 62.674 5.00491 62.674V64H14.5989ZM31.1437 57.448C30.3637 61.075 28.1407 62.752 25.8007 62.752C21.7837 62.752 20.3797 59.086 20.3797 54.406V54.289H32.5867C32.5867 48.634 29.8957 44.383 24.5917 44.383C19.1317 44.383 16.2847 48.985 16.2847 54.406C16.2847 59.827 18.9367 64.468 25.0597 64.468C29.3107 64.468 31.7677 61.66 32.7037 57.916L31.1437 57.448ZM24.5917 45.904C27.5167 45.904 28.3747 49.336 28.4917 52.69H20.4187C20.6527 48.985 21.6277 45.904 24.5917 45.904ZM48.985 51.52C48.985 46.255 46.099 44.383 42.238 44.383C38.416 44.383 35.608 46.216 35.608 49.141C35.608 51.169 36.973 52.261 38.494 52.261C40.366 52.261 41.458 50.779 40.795 49.141C39.859 49.258 39.235 48.556 39.235 47.698C39.235 46.528 40.327 45.709 42.004 45.709C45.046 45.709 45.436 48.244 45.436 50.623C45.436 54.172 35.023 52.924 35.023 59.866C35.023 62.908 37.012 64.468 39.586 64.468C41.77 64.468 44.305 63.376 45.436 60.568C45.514 63.571 46.801 64.468 48.517 64.468C49.726 64.468 50.623 64 51.364 63.415V62.479C49.609 62.479 48.985 61.465 48.985 57.214V51.52ZM41.497 61.972C40.054 61.972 39.001 60.88 39.001 59.086C39.001 55.147 43.798 54.952 45.436 53.041V56.98C45.436 59.905 43.564 61.972 41.497 61.972ZM62.689 46.138C66.277 46.684 65.536 50.272 61.714 59.71C57.346 48.829 56.644 46.645 59.452 46.138V44.812H51.028V46.138C52.666 46.372 53.407 48.088 59.803 64H61.636C67.603 49.297 68.968 46.45 70.528 46.138V44.812H62.689V46.138ZM86.0256 57.448C85.2456 61.075 83.0226 62.752 80.6826 62.752C76.6656 62.752 75.2616 59.086 75.2616 54.406V54.289H87.4686C87.4686 48.634 84.7776 44.383 79.4736 44.383C74.0136 44.383 71.1666 48.985 71.1666 54.406C71.1666 59.827 73.8186 64.468 79.9416 64.468C84.1926 64.468 86.6496 61.66 87.5856 57.916L86.0256 57.448ZM79.4736 45.904C82.3986 45.904 83.2566 49.336 83.3736 52.69H75.3006C75.5346 48.985 76.5096 45.904 79.4736 45.904ZM109.535 60.412C109.067 61.309 108.326 62.011 107.234 62.011C106.103 62.011 105.323 61.309 105.323 58.852V46.411H109.808V44.812H105.401L105.869 38.065H104.504C104.075 41.653 101.891 45.085 98.4587 45.085V46.411H101.93C101.852 51.988 101.54 56.512 101.54 59.164C101.54 62.986 103.49 64.468 106.181 64.468C108.287 64.468 109.769 63.22 110.627 61.036L109.535 60.412ZM129.77 51.715C129.77 46.138 127.508 44.383 124.349 44.383C121.58 44.383 119.669 45.67 118.499 48.79C118.499 44.305 118.577 40.171 118.928 36.7H112.064V38.026C114.794 38.026 115.184 40.249 115.184 50.584C115.184 60.88 114.794 62.674 112.064 62.674V64H121.658V62.674C119.279 62.674 118.655 61.348 118.538 53.665C118.811 47.737 121.307 46.528 123.257 46.528C125.363 46.528 126.182 48.244 126.182 51.715C126.182 60.724 125.753 62.674 123.062 62.674V64H132.617V62.674C129.887 62.674 129.77 60.724 129.77 51.715ZM149.172 57.448C148.392 61.075 146.169 62.752 143.829 62.752C139.812 62.752 138.408 59.086 138.408 54.406V54.289H150.615C150.615 48.634 147.924 44.383 142.62 44.383C137.16 44.383 134.313 48.985 134.313 54.406C134.313 59.827 136.965 64.468 143.088 64.468C147.339 64.468 149.796 61.66 150.732 57.916L149.172 57.448ZM142.62 45.904C145.545 45.904 146.403 49.336 146.52 52.69H138.447C138.681 48.985 139.656 45.904 142.62 45.904ZM173.188 44.383C171.472 44.383 169.522 45.592 168.43 48.361V44.812H161.995V46.099C164.725 46.099 165.115 48.205 165.115 54.406C165.115 60.568 164.725 62.674 161.995 62.674V64H171.589V62.674C168.898 62.674 168.43 60.607 168.43 54.094C168.43 47.425 170.887 46.84 171.667 46.84C172.33 46.84 172.954 47.347 172.954 48.244C172.954 48.907 172.642 49.609 171.979 50.116C172.135 50.974 172.954 51.637 173.968 51.637C175.411 51.637 176.776 50.389 176.776 47.893C176.776 46.177 175.489 44.383 173.188 44.383ZM193.123 57.448C192.343 61.075 190.12 62.752 187.78 62.752C183.763 62.752 182.359 59.086 182.359 54.406V54.289H194.566C194.566 48.634 191.875 44.383 186.571 44.383C181.111 44.383 178.264 48.985 178.264 54.406C178.264 59.827 180.916 64.468 187.039 64.468C191.29 64.468 193.747 61.66 194.683 57.916L193.123 57.448ZM186.571 45.904C189.496 45.904 190.354 49.336 190.471 52.69H182.398C182.632 48.985 183.607 45.904 186.571 45.904ZM207.299 45.475C206.168 45.475 205.232 44.383 202.931 44.383C200.084 44.383 197.51 46.021 197.51 49.57C197.51 56.356 207.338 55.303 207.338 60.217C207.338 61.504 206.363 62.947 204.569 62.947C202.736 62.947 200.396 62.011 198.485 57.058L197.198 57.331V64L198.446 64.312C198.875 63.532 199.187 63.337 199.811 63.337C201.02 63.337 202.268 64.39 204.764 64.39C207.845 64.39 210.497 62.206 210.497 58.735C210.497 51.832 200.513 52.963 200.513 48.322C200.513 46.84 201.527 45.748 203.126 45.748C205.856 45.748 207.26 48.244 208.274 51.169L209.6 50.896V44.812L208.274 44.539C208.079 45.241 207.65 45.475 207.299 45.475ZM223.259 60.412C222.791 61.309 222.05 62.011 220.958 62.011C219.827 62.011 219.047 61.309 219.047 58.852V46.411H223.532V44.812H219.125L219.593 38.065H218.228C217.799 41.653 215.615 45.085 212.183 45.085V46.411H215.654C215.576 51.988 215.264 56.512 215.264 59.164C215.264 62.986 217.214 64.468 219.905 64.468C222.011 64.468 223.493 63.22 224.351 61.036L223.259 60.412Z" fill="black"/>
</svg>
