<svg width="256" height="73" viewBox="0 0 256 73" fill="none" xmlns="http://www.w3.org/2000/svg">
<path d="M75.4375 26.362H67.8715V14.35C67.8715 3.937 68.3395 2.026 71.0305 2.026V0.699998H60.9295V2.026C63.6205 2.026 64.0885 3.937 64.0885 14.35C64.0885 24.763 63.6205 26.674 60.9295 26.674V28H79.9615V17.899L78.6745 17.626L75.4375 26.362ZM98.1403 21.448C97.3603 25.075 95.1373 26.752 92.7973 26.752C88.7803 26.752 87.3763 23.086 87.3763 18.406V18.289H99.5833C99.5833 12.634 96.8923 8.383 91.5883 8.383C86.1283 8.383 83.2813 12.985 83.2813 18.406C83.2813 23.827 85.9333 28.468 92.0563 28.468C96.3073 28.468 98.7643 25.66 99.7003 21.916L98.1403 21.448ZM91.5883 9.904C94.5133 9.904 95.3713 13.336 95.4883 16.69H87.4153C87.6493 12.985 88.6243 9.904 91.5883 9.904ZM112.433 24.412C111.965 25.309 111.224 26.011 110.132 26.011C109.001 26.011 108.221 25.309 108.221 22.852V10.411H112.706V8.812H108.299L108.767 2.065H107.402C106.973 5.653 104.789 9.085 101.357 9.085V10.411H104.828C104.75 15.988 104.438 20.512 104.438 23.164C104.438 26.986 106.388 28.468 109.079 28.468C111.185 28.468 112.667 27.22 113.525 25.036L112.433 24.412ZM119.213 0.270999C117.575 0.270999 116.21 1.636 116.21 3.313C116.21 4.951 117.536 6.355 119.213 6.316C118.745 8.032 117.614 9.748 116.171 11.113L116.912 11.971C120.344 9.787 122.255 6.628 122.255 3.82C122.255 1.636 120.851 0.270999 119.213 0.270999ZM135.053 9.475C133.922 9.475 132.986 8.383 130.685 8.383C127.838 8.383 125.264 10.021 125.264 13.57C125.264 20.356 135.092 19.303 135.092 24.217C135.092 25.504 134.117 26.947 132.323 26.947C130.49 26.947 128.15 26.011 126.239 21.058L124.952 21.331V28L126.2 28.312C126.629 27.532 126.941 27.337 127.565 27.337C128.774 27.337 130.022 28.39 132.518 28.39C135.599 28.39 138.251 26.206 138.251 22.735C138.251 15.832 128.267 16.963 128.267 12.322C128.267 10.84 129.281 9.748 130.88 9.748C133.61 9.748 135.014 12.244 136.028 15.169L137.354 14.896V8.812L136.028 8.539C135.833 9.241 135.404 9.475 135.053 9.475ZM160.23 24.412C159.762 25.309 159.021 26.011 157.929 26.011C156.798 26.011 156.018 25.309 156.018 22.852V10.411H160.503V8.812H156.096L156.564 2.065H155.199C154.77 5.653 152.586 9.085 149.154 9.085V10.411H152.625C152.547 15.988 152.235 20.512 152.235 23.164C152.235 26.986 154.185 28.468 156.876 28.468C158.982 28.468 160.464 27.22 161.322 25.036L160.23 24.412ZM173.953 8.383C172.237 8.383 170.287 9.592 169.195 12.361V8.812H162.76V10.099C165.49 10.099 165.88 12.205 165.88 18.406C165.88 24.568 165.49 26.674 162.76 26.674V28H172.354V26.674C169.663 26.674 169.195 24.607 169.195 18.094C169.195 11.425 171.652 10.84 172.432 10.84C173.095 10.84 173.719 11.347 173.719 12.244C173.719 12.907 173.407 13.609 172.744 14.116C172.9 14.974 173.719 15.637 174.733 15.637C176.176 15.637 177.541 14.389 177.541 11.893C177.541 10.177 176.254 8.383 173.953 8.383ZM189.633 10.138C193.182 10.645 192.48 14.272 188.658 23.71C184.134 12.478 183.9 10.645 186.396 10.138V8.812H177.972V10.138C179.571 10.411 180.351 12.049 186.864 28.351C185.46 31.783 184.953 32.719 183.861 32.719C182.964 32.719 182.535 31.978 182.964 31.276C182.574 30.886 182.067 30.652 181.404 30.652C180.078 30.652 178.986 31.822 178.986 33.538C178.986 35.371 180.507 36.424 182.184 36.424C184.758 36.424 186.123 34.123 188.463 28.312C194.586 13.18 195.951 10.528 197.472 10.138V8.812H189.633V10.138ZM10.4738 45.475C9.34281 45.475 8.40681 44.383 6.10581 44.383C3.25881 44.383 0.684813 46.021 0.684813 49.57C0.684813 56.356 10.5128 55.303 10.5128 60.217C10.5128 61.504 9.53781 62.947 7.74381 62.947C5.91081 62.947 3.57081 62.011 1.65981 57.058L0.372813 57.331V64L1.62081 64.312C2.04981 63.532 2.36181 63.337 2.98581 63.337C4.19481 63.337 5.44281 64.39 7.93881 64.39C11.0198 64.39 13.6718 62.206 13.6718 58.735C13.6718 51.832 3.68781 52.963 3.68781 48.322C3.68781 46.84 4.70181 45.748 6.30081 45.748C9.03081 45.748 10.4348 48.244 11.4488 51.169L12.7748 50.896V44.812L11.4488 44.539C11.2538 45.241 10.8248 45.475 10.4738 45.475ZM24.4066 64.468C29.9446 64.468 32.7916 59.827 32.7916 54.406C32.7916 48.985 29.9446 44.383 24.4066 44.383C18.8686 44.383 16.0216 48.985 16.0216 54.406C16.0216 59.827 18.8686 64.468 24.4066 64.468ZM24.4066 62.908C21.0916 62.908 20.1166 58.852 20.1166 54.406C20.1166 49.999 21.0916 45.904 24.4066 45.904C27.7216 45.904 28.6966 49.999 28.6966 54.406C28.6966 58.852 27.7216 62.908 24.4066 62.908ZM63.5717 51.715C63.5717 46.138 61.3097 44.383 58.1507 44.383C55.5377 44.383 53.5097 45.592 52.2227 48.829C51.6767 46.099 50.3507 44.383 47.1527 44.383C44.6177 44.383 42.5507 45.475 41.3027 48.829V44.812H34.8677V46.099C37.5977 46.099 37.9877 48.205 37.9877 54.406C37.9877 60.568 37.5977 62.674 34.8677 62.674V64H44.4617V62.674C41.7707 62.674 41.3027 60.646 41.3027 54.718C41.3027 47.893 43.9937 46.528 46.0607 46.528C48.1667 46.528 48.9857 48.244 48.9857 51.715C48.9857 60.724 48.5567 62.674 45.8657 62.674V64H55.4207V62.674C52.8857 62.674 52.4957 61.075 52.5347 54.406C52.5737 47.62 55.1867 46.528 57.0587 46.528C59.1257 46.528 59.9837 48.244 59.9837 51.715C59.9837 60.724 59.5547 62.674 56.8247 62.674V64H66.4187V62.674C63.6887 62.674 63.5717 60.724 63.5717 51.715ZM82.944 57.448C82.164 61.075 79.941 62.752 77.601 62.752C73.584 62.752 72.18 59.086 72.18 54.406V54.289H84.387C84.387 48.634 81.696 44.383 76.392 44.383C70.932 44.383 68.085 48.985 68.085 54.406C68.085 59.827 70.737 64.468 76.86 64.468C81.111 64.468 83.568 61.66 84.504 57.916L82.944 57.448ZM76.392 45.904C79.317 45.904 80.175 49.336 80.292 52.69H72.219C72.453 48.985 73.428 45.904 76.392 45.904ZM97.2363 60.412C96.7683 61.309 96.0273 62.011 94.9353 62.011C93.8043 62.011 93.0243 61.309 93.0243 58.852V46.411H97.5093V44.812H93.1023L93.5703 38.065H92.2053C91.7763 41.653 89.5923 45.085 86.1603 45.085V46.411H89.6313C89.5533 51.988 89.2413 56.512 89.2413 59.164C89.2413 62.986 91.1913 64.468 93.8823 64.468C95.9883 64.468 97.4703 63.22 98.3283 61.036L97.2363 60.412ZM117.472 51.715C117.472 46.138 115.21 44.383 112.051 44.383C109.282 44.383 107.371 45.67 106.201 48.79C106.201 44.305 106.279 40.171 106.63 36.7H99.7661V38.026C102.496 38.026 102.886 40.249 102.886 50.584C102.886 60.88 102.496 62.674 99.7661 62.674V64H109.36V62.674C106.981 62.674 106.357 61.348 106.24 53.665C106.513 47.737 109.009 46.528 110.959 46.528C113.065 46.528 113.884 48.244 113.884 51.715C113.884 60.724 113.455 62.674 110.764 62.674V64H120.319V62.674C117.589 62.674 117.472 60.724 117.472 51.715ZM126.188 36.7C124.706 36.7 123.614 37.831 123.614 39.313C123.614 40.756 124.706 41.887 126.188 41.887C127.592 41.887 128.723 40.756 128.723 39.313C128.723 37.831 127.592 36.7 126.188 36.7ZM131.336 64V62.674C128.606 62.674 128.177 60.568 128.177 54.406C128.177 51.247 128.216 47.503 128.606 44.812H121.742V46.099C124.472 46.099 124.862 48.205 124.862 54.406C124.862 60.568 124.472 62.674 121.742 62.674V64H131.336ZM150.455 51.715C150.416 46.099 148.271 44.383 145.034 44.383C142.46 44.383 140.51 45.436 139.184 48.79V44.812H132.749V46.138C135.479 46.138 135.869 48.205 135.869 54.406C135.869 60.568 135.479 62.674 132.749 62.674V64H142.343V62.674C139.652 62.674 139.184 60.646 139.184 54.718C139.184 47.893 141.875 46.528 143.903 46.528C146.165 46.528 146.867 48.244 146.867 52.534C146.867 60.685 146.36 62.674 143.747 62.674V64H153.302V62.674C150.494 62.674 150.494 60.685 150.455 51.715ZM160.028 59.788C158.312 59.788 157.649 58.891 157.649 58.033C157.649 56.941 158.624 56.278 160.106 56.122C161.003 56.473 162.056 56.668 163.265 56.668C167.867 56.668 170.246 53.743 170.246 50.467C170.246 48.4 169.271 46.45 167.321 45.319C167.321 44.383 167.633 43.057 168.803 43.057C169.856 43.057 170.207 44.344 169.817 45.085C170.051 45.28 170.363 45.358 170.792 45.358C171.845 45.358 172.664 44.305 172.664 42.979C172.664 41.341 171.377 40.132 169.739 40.132C167.711 40.132 166.112 42.004 165.878 44.734C165.137 44.5 164.279 44.383 163.304 44.383C158.663 44.383 156.245 47.269 156.245 50.506C156.245 52.339 157.025 54.055 158.546 55.225C156.752 55.654 155.231 57.097 155.231 59.398C155.231 61.348 156.323 62.518 157.805 63.103C156.284 63.883 155.192 65.404 155.192 67.042C155.192 69.226 157.064 72.424 163.538 72.424H164.084C168.608 72.424 172.664 70.084 172.664 65.56C172.664 62.128 170.324 59.788 166.112 59.788H160.028ZM163.265 45.865C165.566 45.865 166.268 48.049 166.268 50.506C166.268 53.041 165.566 55.147 163.265 55.147C161.003 55.147 160.262 53.002 160.262 50.506C160.262 48.049 161.003 45.865 163.265 45.865ZM163.538 70.981C159.599 70.981 158.351 68.68 158.351 66.691C158.351 65.014 159.287 63.532 160.418 63.532H166.268C168.725 63.532 169.934 64.585 169.934 66.418C169.934 68.914 167.75 70.981 164.084 70.981H163.538ZM200.842 51.715C200.803 46.099 198.658 44.383 195.421 44.383C192.847 44.383 190.897 45.436 189.571 48.79V44.812H183.136V46.138C185.866 46.138 186.256 48.205 186.256 54.406C186.256 60.568 185.866 62.674 183.136 62.674V64H192.73V62.674C190.039 62.674 189.571 60.646 189.571 54.718C189.571 47.893 192.262 46.528 194.29 46.528C196.552 46.528 197.254 48.244 197.254 52.534C197.254 60.685 196.747 62.674 194.134 62.674V64H203.689V62.674C200.881 62.674 200.881 60.685 200.842 51.715ZM220.244 57.448C219.464 61.075 217.241 62.752 214.901 62.752C210.884 62.752 209.48 59.086 209.48 54.406V54.289H221.687C221.687 48.634 218.996 44.383 213.692 44.383C208.232 44.383 205.385 48.985 205.385 54.406C205.385 59.827 208.037 64.468 214.16 64.468C218.411 64.468 220.868 61.66 221.804 57.916L220.244 57.448ZM213.692 45.904C216.617 45.904 217.475 49.336 217.592 52.69H209.519C209.753 48.985 210.728 45.904 213.692 45.904ZM243.791 46.138C246.716 46.723 246.287 49.96 242.816 59.32C238.877 48.751 238.37 46.528 241.061 46.138V44.812H233.066V46.138C233.963 46.294 234.587 47.074 235.718 49.882L232.208 59.32C228.23 48.595 227.762 46.528 230.414 46.138V44.812H222.38V46.138C223.745 46.411 224.252 47.464 230.375 64H232.13L236.537 52.066L240.983 64H242.738C248.081 49.414 249.407 46.411 250.889 46.138V44.812H243.791V46.138ZM252.857 58.345C251.18 58.345 249.815 59.71 249.815 61.387C249.815 63.025 251.18 64.429 252.857 64.429C254.534 64.429 255.899 63.025 255.899 61.387C255.899 59.71 254.534 58.345 252.857 58.345Z" fill="black"/>
</svg>
